HIERARCHY
ROOT root
{
	OFFSET 0.000000 0.000000 0.000000
	CHANNELS 6 Xposition Yposition Zposition Zrotation Yrotation Xrotation
	JOINT lhip
	{
		OFFSET 0.058581 -0.082280 -0.017664
		CHANNELS 3 Zrotation Yrotation Xrotation
		JOINT lknee
		{
			OFFSET 0.043451 -0.386469 0.008037
			CHANNELS 3 Zrotation Yrotation Xrotation
			JOINT lankle
			{
				OFFSET -0.014790 -0.426874 -0.037428
				CHANNELS 3 Zrotation Yrotation Xrotation
				JOINT ltoe
				{
					OFFSET 0.041054 -0.060286 0.122042
					CHANNELS 3 Zrotation Yrotation Xrotation
					End Site
					{
						OFFSET 0.000000 0.000000 0.000000
					}
				}
			}
		}
	}
	JOINT rhip
	{
		OFFSET -0.060310 -0.090513 -0.013543
		CHANNELS 3 Zrotation Yrotation Xrotation
		JOINT rknee
		{
			OFFSET -0.043257 -0.383688 -0.004843
			CHANNELS 3 Zrotation Yrotation Xrotation
			JOINT rankle
			{
				OFFSET 0.019056 -0.420046 -0.034562
				CHANNELS 3 Zrotation Yrotation Xrotation
				JOINT rtoe
				{
					OFFSET -0.034840 -0.062106 0.130323
					CHANNELS 3 Zrotation Yrotation Xrotation
					End Site
					{
						OFFSET 0.000000 0.000000 0.000000
					}
				}
			}
		}
	}
	JOINT lowerback
	{
		OFFSET 0.004439 0.124404 -0.038385
		CHANNELS 3 Zrotation Yrotation Xrotation
		JOINT upperback
		{
			OFFSET 0.004488 0.137956 0.026820
			CHANNELS 3 Zrotation Yrotation Xrotation
			JOINT chest
			{
				OFFSET -0.002265 0.056032 0.002855
				CHANNELS 3 Zrotation Yrotation Xrotation
				JOINT lowerneck
				{
					OFFSET -0.013390 0.211636 -0.033468
					CHANNELS 3 Zrotation Yrotation Xrotation
					JOINT upperneck
					{
						OFFSET 0.010113 0.088937 0.050410
						CHANNELS 3 Zrotation Yrotation Xrotation
						End Site
						{
							OFFSET 0.000000 0.000000 0.000000
						}
					}
				}
				JOINT lclavicle
				{
					OFFSET 0.071702 0.114000 -0.018898
					CHANNELS 3 Zrotation Yrotation Xrotation
					JOINT lshoulder
					{
						OFFSET 0.122921 0.045205 -0.019046
						CHANNELS 3 Zrotation Yrotation Xrotation
						JOINT lelbow
						{
							OFFSET 0.255332 -0.015649 -0.022946
							CHANNELS 3 Zrotation Yrotation Xrotation
							JOINT lwrist
							{
								OFFSET 0.265709 0.012698 -0.007375
								CHANNELS 3 Zrotation Yrotation Xrotation
								End Site
								{
									OFFSET 0.000000 0.000000 0.000000
								}
							}
						}
					}
				}
				JOINT rclavicle
				{
					OFFSET -0.082954 0.112472 -0.023707
					CHANNELS 3 Zrotation Yrotation Xrotation
					JOINT rshoulder
					{
						OFFSET -0.113228 0.046853 -0.008472
						CHANNELS 3 Zrotation Yrotation Xrotation
						JOINT relbow
						{
							OFFSET -0.260127 -0.014369 -0.031269
							CHANNELS 3 Zrotation Yrotation Xrotation
							JOINT rwrist
							{
								OFFSET -0.269108 0.006794 -0.006027
								CHANNELS 3 Zrotation Yrotation Xrotation
								End Site
								{
									OFFSET 0.000000 0.000000 0.000000
								}
							}
						}
					}
				}
			}
		}
	}
}
MOTION
Frames: 15
Frame Time: 0.033333
1.759996 0.730727 0.989404 -91.468443 3.009057 85.005716 1.526775 0.763213 9.210449 -1.396186 -15.013603 1.032990 5.038548 9.302866 -19.511488 0.000000 -0.000000 0.000000 2.090217 -2.636143 4.023140 2.438279 2.883576 8.520138 2.465133 -4.423023 -18.403112 0.000000 -0.000000 0.000000 -2.330550 2.196536 4.171418 1.431805 -1.286341 3.190676 2.186060 -0.648069 4.005004 3.862302 3.722575 -7.224632 1.957818 -1.934154 -1.746339 -25.988052 3.145461 0.639390 -62.069105 -4.926034 9.167015 10.438017 -26.204057 7.109539 -0.653040 -1.998079 -6.366448 24.963578 -0.860136 0.389980 60.822244 1.577915 11.743315 -15.432011 24.736312 -1.617136 4.991187 -1.260434 -6.063005 
1.759927 0.731413 0.988280 -90.529595 3.046020 84.741269 1.724297 0.633417 9.089742 -1.689975 -15.362745 1.785896 5.087813 8.841006 -20.081327 0.000000 -0.000000 0.000000 3.142881 -3.405273 2.691187 0.562617 2.369171 11.744621 2.263984 -4.278021 -20.379876 0.000000 -0.000000 0.000000 -2.491464 1.926222 4.947530 1.459739 -1.547865 2.467761 2.269783 -0.991350 4.737164 3.952063 4.062401 -8.182341 1.806147 -2.224778 -0.792023 -25.052371 3.189672 0.706701 -62.752408 -4.588114 9.059178 10.015481 -24.331018 7.297419 -0.938481 -2.537430 -7.250106 24.558192 -1.084250 -0.089528 61.208571 1.614660 11.553677 -13.745596 24.316002 -1.491580 6.546646 0.506836 -8.052783 
1.762466 0.732116 0.988699 -90.360964 3.069715 85.189893 1.912261 0.201862 7.920211 -2.112077 -15.021052 2.682258 5.443988 8.986785 -20.086114 0.000000 -0.000000 0.000000 3.173312 -2.926658 2.248354 0.848304 3.100613 12.463609 1.943204 -4.623166 -17.582125 0.000000 -0.000000 0.000000 -2.295219 2.001010 5.209970 1.429572 -1.686785 1.942434 2.082788 -1.047656 4.715047 3.522500 4.150915 -7.763702 1.866583 -1.751674 -1.185247 -25.156151 3.192219 0.982077 -62.439639 -4.268333 8.585446 9.427975 -22.113951 7.297788 -1.705865 -2.715696 -8.157036 24.682136 -1.208325 0.177266 61.078791 1.469164 11.697767 -13.596692 23.839055 -1.520261 6.168596 0.368533 -8.725460 
1.762137 0.733492 0.988226 -90.366715 3.377486 85.110015 2.441003 0.197905 8.066807 -2.215236 -15.037892 2.595848 5.111039 9.003151 -19.749833 0.000000 -0.000000 0.000000 2.306395 -2.973158 3.745106 2.892224 3.302917 9.869874 2.210859 -4.506229 -15.487364 0.000000 -0.000000 0.000000 -1.674399 2.041680 5.181926 1.252630 -1.845185 2.433323 1.955639 -1.020526 4.405018 3.296795 3.989057 -7.282636 2.141223 -1.371054 -1.815421 -25.584094 3.299833 1.070676 -62.054494 -3.795570 8.069086 9.588387 -20.123530 7.042003 -2.190838 -2.212709 -7.693827 24.589251 -1.430235 0.480322 61.142637 1.498268 11.410297 -13.390329 22.839780 -1.317933 6.204461 0.388171 -8.577865 
1.762360 0.733896 0.988138 -90.381766 3.380478 85.146822 2.478060 0.142674 7.909244 -2.299293 -14.953324 2.820574 5.045986 9.000218 -19.860959 0.000000 -0.000000 0.000000 2.272289 -2.921675 3.675782 3.055276 3.325803 9.863736 2.223576 -4.564529 -15.436616 0.000000 -0.000000 0.000000 -1.651107 2.026354 5.182760 1.246420 -1.840314 2.429798 1.876734 -1.056745 4.478649 3.387104 4.029333 -7.482582 2.153481 -1.479841 -1.756281 -25.644032 3.533287 1.151483 -61.910613 -3.630679 7.934111 9.636932 -19.484283 6.903123 -2.483006 -2.431561 -7.793721 24.646362 -1.499489 0.559762 61.108534 1.466471 11.435434 -13.354906 22.280590 -1.281142 6.265286 0.317793 -8.551123 
1.762170 0.734314 0.987842 -90.285416 3.331386 85.174233 2.434583 0.213900 7.926454 -2.230981 -15.083375 2.711539 4.880602 8.947711 -19.782182 0.000000 -0.000000 0.000000 2.333792 -2.715359 3.760609 2.933456 3.111652 9.585897 2.139925 -4.707821 -15.474871 0.000000 -0.000000 0.000000 -1.745255 2.044520 5.159215 1.237056 -1.777272 2.414608 1.864293 -1.101650 4.579295 3.610925 4.111309 -7.777514 2.188696 -1.658754 -1.686277 -25.747191 3.817368 1.000392 -61.711484 -3.476706 7.854551 9.577445 -18.621438 6.972119 -2.634584 -2.706034 -7.195479 24.746767 -1.752770 0.492193 61.054769 1.399668 11.411574 -13.281638 21.622091 -1.340302 6.207214 0.205284 -8.393590 
1.762169 0.734676 0.987889 -90.220439 3.345722 85.098207 2.445460 0.348822 7.941619 -2.181710 -15.226769 2.880230 4.839848 8.870403 -19.825501 0.000000 -0.000000 0.000000 2.359556 -2.636573 3.869540 2.943245 2.980084 9.572615 2.162906 -4.767567 -15.484033 0.000000 -0.000000 0.000000 -1.746296 1.969440 5.271380 1.211495 -1.724640 2.442505 1.872729 -1.096469 4.671554 3.690074 4.276910 -8.059637 2.179600 -1.622912 -1.614795 -25.854903 4.014356 0.964153 -61.564262 -3.247762 7.707297 9.598581 -18.409847 6.807851 -2.630655 -2.891241 -7.029901 24.824674 -1.853616 0.443748 60.970737 1.310329 11.365237 -13.341491 21.226205 -1.403145 5.977087 0.105229 -8.123394 
1.762141 0.735019 0.987811 -90.199785 3.352325 85.063117 2.452339 0.327652 7.992738 -2.165692 -15.281624 2.904711 4.798169 8.970707 -19.826487 0.000000 -0.000000 0.000000 2.432076 -2.371110 3.984464 2.930974 2.902066 9.462053 2.134803 -4.921531 -15.516978 0.000000 -0.000000 0.000000 -1.776295 1.940917 5.380675 1.208731 -1.652750 2.358701 1.915038 -1.068857 4.687310 3.697220 4.308305 -8.069664 2.263666 -1.538166 -1.769088 -25.718112 4.187428 1.110963 -61.662968 -3.011352 7.680024 9.560364 -18.272520 6.968172 -2.646690 -2.714576 -7.369379 24.771561 -1.899541 0.451435 60.952298 1.224262 11.293328 -13.191774 20.918994 -1.403586 6.006059 0.341759 -8.323484 
1.762021 0.735349 0.987728 -90.241938 3.352117 85.050552 2.470172 0.382645 8.019232 -2.135292 -15.275763 2.900372 4.771821 8.961732 -19.789479 0.000000 -0.000000 0.000000 2.410388 -2.543767 3.958248 2.969164 3.034908 9.531152 2.092918 -4.876747 -15.498752 0.000000 -0.000000 0.000000 -1.769518 2.014720 5.358154 1.192164 -1.584527 2.447763 1.910545 -1.026405 4.711228 3.723651 4.317157 -8.305386 2.365872 -1.509872 -1.901254 -25.705607 4.286999 1.144194 -61.622446 -2.938453 7.664071 9.461632 -18.545408 7.018701 -2.516564 -2.536447 -7.414787 24.774039 -1.942807 0.392618 60.961328 1.141572 11.151339 -13.213427 20.680380 -1.527576 5.926652 0.163125 -8.270067 
1.761892 0.735582 0.987714 -90.055292 3.377995 85.071660 2.531031 0.496673 7.981207 -2.118109 -15.469904 2.906761 4.690046 8.871240 -19.847401 0.000000 -0.000000 0.000000 2.427511 -2.732766 3.982062 2.965736 3.014629 9.476006 2.134754 -4.813113 -15.537924 0.000000 -0.000000 0.000000 -1.707760 1.996657 5.354904 1.158295 -1.594905 2.469438 1.884794 -0.998555 4.681482 3.749393 4.400755 -8.356249 2.478530 -1.428926 -1.993540 -25.665783 4.361612 1.106262 -61.614948 -2.935824 7.662296 9.361407 -18.877021 7.110012 -2.451607 -2.476420 -7.348353 24.736556 -2.084441 0.198134 60.987873 1.042991 11.031279 -13.151015 20.503933 -1.452792 5.966329 0.209882 -8.133721 
1.761420 0.736186 0.987837 -89.795873 3.284434 85.130272 2.487182 0.247061 7.973561 -2.171107 -15.394866 2.861557 4.796207 8.825674 -19.928742 0.000000 -0.000000 0.000000 2.519138 -2.802822 3.889572 2.724774 2.922440 9.663185 2.132626 -4.947633 -15.670962 0.000000 -0.000000 0.000000 -1.979630 2.113393 5.079909 1.217229 -1.717079 2.556165 2.002796 -1.090908 4.838342 3.790127 4.489341 -8.413524 2.586044 -1.406738 -1.981046 -25.618434 4.407209 1.088942 -61.689336 -3.101648 7.762172 9.281193 -19.405055 7.207721 -2.183708 -2.591399 -7.426703 24.760035 -2.230059 0.200776 60.964587 1.030203 11.064123 -13.210814 20.955165 -1.525840 5.885504 0.347734 -8.328438 
1.760572 0.736129 0.987819 -89.506090 3.286317 85.024778 2.506825 0.383620 8.079731 -2.135778 -15.688091 2.935460 4.703142 8.654446 -19.940740 0.000000 -0.000000 0.000000 2.382797 -2.888001 4.179894 2.911608 2.649452 9.498648 2.182612 -4.868276 -15.757823 0.000000 -0.000000 0.000000 -1.927233 2.099939 5.033931 1.205730 -1.837104 2.722724 1.993304 -1.143598 4.834789 3.810506 4.611922 -8.506559 2.669834 -1.321485 -1.961368 -25.689360 4.284576 1.024358 -61.777546 -3.345686 7.800599 9.295748 -19.789483 7.097813 -2.244339 -2.774580 -7.518042 24.716049 -2.266254 0.092179 60.964073 0.947848 11.024272 -13.284665 21.267728 -1.582738 5.917816 0.478342 -8.424557 
1.759462 0.736146 0.987856 -89.044343 3.279087 84.931554 2.513179 0.204094 8.274621 -2.122699 -15.826951 2.842689 4.685886 8.557063 -19.918987 0.000000 -0.000000 0.000000 2.409964 -3.211317 4.596883 2.813738 2.694940 9.168224 2.168635 -5.035255 -15.745068 0.000000 -0.000000 0.000000 -1.927127 1.893010 4.896280 1.208758 -2.077463 2.843505 1.969642 -1.156865 4.871508 3.861894 4.632975 -8.278652 2.815322 -1.297039 -1.879256 -25.684148 4.108298 1.148666 -61.819578 -3.404912 7.953317 9.318588 -20.670462 7.079845 -2.137649 -2.714110 -7.738056 24.720218 -2.090477 0.205526 60.968757 1.030181 10.997713 -13.310964 21.524568 -1.632553 6.043165 0.417307 -8.488357 
1.760894 0.736660 0.987717 -89.512578 3.228397 85.247534 2.488425 0.190921 7.820560 -2.201802 -15.505635 2.932557 4.752872 8.682976 -19.810275 0.000000 -0.000000 0.000000 2.420464 -3.059206 3.761888 2.800756 2.752233 9.780944 2.107310 -4.854937 -15.815822 0.000000 -0.000000 0.000000 -1.953216 2.073612 4.828435 1.200767 -1.822145 2.582293 1.948145 -1.092043 4.860426 3.872732 4.787930 -8.449805 2.921431 -1.271485 -1.787271 -25.760943 3.975883 1.017876 -61.742337 -3.664719 8.107499 9.069359 -21.298852 6.947594 -1.916610 -2.808299 -8.085735 24.700660 -2.004544 0.275256 61.050224 1.137723 11.179210 -13.460143 21.886064 -1.649595 6.090186 0.192261 -8.618243 
1.760897 0.737035 0.987782 -89.575269 3.183330 85.311589 2.498886 0.266864 7.730635 -2.275783 -15.435089 3.002871 4.857359 8.647731 -19.914430 0.000000 -0.000000 0.000000 2.383314 -3.257679 3.657797 2.785034 2.821989 9.839320 2.067630 -4.631387 -15.864386 0.000000 -0.000000 0.000000 -1.950816 2.078278 4.831185 1.171638 -1.812878 2.518075 1.902843 -1.043184 4.655505 3.729142 4.972165 -8.115281 2.982722 -1.008889 -1.865225 -25.668388 3.814653 1.037450 -61.742005 -3.775988 8.239639 8.963852 -22.216535 7.160835 -2.002362 -2.740049 -8.076253 24.657431 -1.870936 0.336140 61.142077 1.127155 11.136529 -13.472576 22.254042 -1.756056 6.283546 0.294664 -8.812831 
